# xmcd CD database file
# Copyright (C) 1995 Ti Kan
#
# Track frame offsets:
#	182
#	22090
#	55515
#	71510
#	83752
#	94977
#	128915
#	147190
#	164815
#	187577
#
# Disc length: 2673 seconds
#
# Revision: 1
# Processed by: cddbd v1.4b41PL1 Copyright (c) Steve Scherf et al.
# Submitted via: xmcd 1.4
#
DISCID=830a6f0a
DTITLE=B.B. King - Live At The Apollo
DYEAR=1900
DGENRE=
TTITLE0=When Love Comes To Town
TTITLE1=Sweet Sixteen
TTITLE2=The Thrill Is Gone
TTITLE3=Ain't Nobody's Bizness
TTITLE4=Paying The Cost To Be The Boss
TTITLE5=All Over Again
TTITLE6=Nightlife
TTITLE7=Since I Met You Baby
TTITLE8=Guess Who
TTITLE9=Peace To The World
EXTD=
EXTT0=
EXTT1=
EXTT2=
EXTT3=
EXTT4=
EXTT5=
EXTT6=
EXTT7=
EXTT8=
EXTT9=
PLAYORDER=
